<?xml version="1.0" standalone="no"?>
<!DOCTYPE svg PUBLIC "-//W3C//DTD SVG 20010904//EN"
 "http://www.w3.org/TR/2001/REC-SVG-20010904/DTD/svg10.dtd">
<svg version="1.0" xmlns="http://www.w3.org/2000/svg"
 width="583.000000pt" height="583.000000pt" viewBox="0 0 583.000000 583.000000"
 preserveAspectRatio="xMidYMid meet">
<metadata>
Created by potrace 1.11, written by Peter Selinger 2001-2013
</metadata>
<g transform="translate(0.000000,583.000000) scale(0.100000,-0.100000)"
fill="#000000" stroke="none">
<path d="M2689 5595 c-2 -2 -29 -6 -59 -9 -433 -48 -843 -197 -1203 -437 -213
-143 -473 -381 -618 -569 -316 -407 -512 -886 -568 -1390 -9 -79 -7 -518 3
-585 2 -16 7 -48 10 -70 4 -22 11 -69 17 -104 5 -36 12 -67 14 -71 2 -4 7 -22
10 -41 3 -19 13 -59 21 -89 9 -30 18 -63 20 -73 7 -37 68 -205 115 -315 175
-415 478 -799 859 -1088 298 -227 670 -394 1063 -479 195 -42 288 -50 552 -50
268 0 386 13 615 66 887 206 1627 875 1923 1739 60 175 111 399 134 590 10 84
10 495 0 580 -83 701 -417 1323 -952 1777 -353 298 -833 516 -1305 592 -36 6
-83 13 -105 17 -42 7 -540 15 -546 9z"/>
</g>
</svg>
