<?xml version="1.0" standalone="no"?>
<!DOCTYPE svg PUBLIC "-//W3C//DTD SVG 20010904//EN"
 "http://www.w3.org/TR/2001/REC-SVG-20010904/DTD/svg10.dtd">
<svg version="1.0" xmlns="http://www.w3.org/2000/svg"
 width="302.000000pt" height="302.000000pt" viewBox="0 0 302.000000 302.000000"
 preserveAspectRatio="xMidYMid meet">
<metadata>
Created by potrace 1.11, written by Peter Selinger 2001-2013
</metadata>
<g transform="translate(0.000000,302.000000) scale(0.100000,-0.100000)"
fill="#000000" stroke="none">
<path d="M2180 2821 c0 -5 11 -19 25 -32 13 -13 25 -30 25 -36 0 -14 47 -29
57 -19 4 4 -15 27 -42 51 -48 44 -65 54 -65 36z"/>
<path d="M2325 2743 c5 -21 1 -31 -16 -44 -27 -20 -17 -39 21 -39 35 0 48 -16
20 -25 -22 -7 -28 -35 -7 -35 26 0 115 -49 146 -81 36 -35 35 -35 45 5 6 26 5
28 -17 22 -28 -7 -52 10 -61 41 -9 28 6 36 38 22 43 -20 44 1 1 37 -51 45
-160 124 -170 124 -4 0 -4 -12 0 -27z"/>
<path d="M2160 2542 c0 -5 6 -16 13 -27 16 -20 33 -5 23 20 -6 16 -36 21 -36
7z"/>
<path d="M2260 2507 c0 -13 -7 -38 -16 -56 -21 -41 -9 -55 34 -39 20 8 32 19
32 31 0 10 4 27 10 37 8 14 5 21 -15 34 -33 22 -45 20 -45 -7z"/>
<path d="M1695 2460 c-3 -5 -2 -10 4 -10 5 0 13 5 16 10 3 6 2 10 -4 10 -5 0
-13 -4 -16 -10z"/>
<path d="M790 2450 c0 -5 5 -10 11 -10 5 0 7 5 4 10 -3 6 -8 10 -11 10 -2 0
-4 -4 -4 -10z"/>
<path d="M2580 2445 c-7 -8 -23 -15 -35 -15 -23 0 -40 -24 -29 -41 6 -11 61
-11 89 0 12 5 30 3 47 -5 64 -33 92 3 38 48 -38 31 -90 37 -110 13z"/>
<path d="M2158 2320 c-121 -22 -258 -77 -342 -137 -42 -30 -54 -34 -75 -26
-21 7 -26 15 -24 38 3 34 -18 61 -53 69 -13 4 -24 13 -24 21 0 8 -9 15 -20 15
-15 0 -20 -7 -20 -29 0 -43 33 -78 139 -148 2 -1 -18 -26 -43 -54 -26 -29 -66
-84 -88 -122 l-42 -69 -58 6 -58 6 0 -35 c0 -41 3 -41 61 -16 24 11 45 19 46
17 2 -1 -6 -28 -16 -59 -47 -137 -52 -350 -11 -495 41 -147 129 -286 237 -377
77 -64 217 -136 313 -160 143 -37 376 -35 500 4 36 12 77 21 92 21 14 0 28 4
30 8 2 5 30 23 63 41 33 17 71 40 84 50 l24 19 -33 58 c-128 230 -194 345
-199 349 -4 2 -26 -9 -50 -25 -83 -56 -146 -74 -256 -74 -87 -1 -107 3 -155
25 -67 31 -131 94 -162 157 -31 65 -37 173 -12 244 23 63 99 150 135 153 13 1
23 7 22 13 -1 5 17 18 40 27 57 23 189 23 242 0 l40 -17 -33 -10 c-58 -16 -32
-33 49 -33 41 0 84 -6 95 -12 20 -12 24 -8 58 55 20 37 63 114 96 172 33 58
68 120 77 138 10 19 22 31 30 28 22 -9 -14 52 -38 65 -13 7 -19 17 -16 29 10
39 -16 54 -94 57 -70 3 -72 2 -44 -11 17 -8 44 -12 64 -8 32 5 34 4 27 -21 -4
-19 -1 -29 11 -37 23 -15 6 -9 -76 25 -114 47 -206 65 -351 70 -74 2 -156 0
-182 -5z m-482 -97 c-7 -7 -26 7 -26 19 0 6 6 6 15 -2 9 -7 13 -15 11 -17z"/>
<path d="M2595 2310 c3 -5 10 -10 16 -10 5 0 9 5 9 10 0 6 -7 10 -16 10 -8 0
-12 -4 -9 -10z"/>
<path d="M240 1540 l0 -760 358 0 c399 0 445 6 569 64 170 81 263 246 250 444
-6 105 -47 193 -124 270 l-53 53 25 33 c13 17 37 59 52 91 25 53 28 72 28 160
0 93 -2 105 -32 166 -40 81 -102 140 -188 181 -106 49 -182 57 -552 58 l-333
0 0 -760z m585 396 c36 -15 52 -37 55 -76 5 -53 -1 -73 -29 -101 -26 -25 -37
-29 -85 -29 l-56 0 0 110 0 110 40 0 c22 0 56 -6 75 -14z m39 -550 c52 -22 76
-60 76 -123 0 -47 -4 -59 -28 -83 -33 -32 -87 -50 -154 -50 l-48 0 0 135 0
135 60 0 c33 0 75 -6 94 -14z"/>
<path d="M86 1999 c-11 -40 10 -109 34 -109 27 0 27 52 1 77 -10 10 -21 27
-23 38 -4 18 -6 17 -12 -6z"/>
<path d="M2780 1920 c0 -5 9 -10 21 -10 11 0 17 5 14 10 -3 6 -13 10 -21 10
-8 0 -14 -4 -14 -10z"/>
<path d="M2765 1820 c3 -5 15 -10 26 -10 10 0 19 5 19 10 0 6 -12 10 -26 10
-14 0 -23 -4 -19 -10z"/>
<path d="M2930 1821 c0 -11 26 -22 34 -14 12 12 5 23 -14 23 -11 0 -20 -4 -20
-9z"/>
<path d="M2840 1806 c0 -8 5 -18 10 -21 6 -3 10 3 10 14 0 12 -4 21 -10 21 -5
0 -10 -6 -10 -14z"/>
<path d="M40 1780 c0 -13 18 -22 24 -11 3 5 -1 11 -9 15 -8 3 -15 1 -15 -4z"/>
<path d="M2338 1783 c-28 -7 -21 -23 10 -23 37 0 60 15 37 24 -18 6 -20 6 -47
-1z"/>
<path d="M2482 1724 c1 -9 9 -19 16 -22 9 -3 13 2 10 14 -1 9 -9 19 -16 22 -9
3 -13 -2 -10 -14z"/>
<path d="M2400 1652 c0 -25 25 -58 34 -44 7 12 -13 62 -26 62 -4 0 -8 -8 -8
-18z"/>
<path d="M2526 1662 c-3 -5 -17 -7 -31 -4 -27 5 -28 3 -19 -22 7 -18 39 -22
49 -6 4 6 14 9 23 8 22 -4 22 26 0 30 -9 2 -19 -1 -22 -6z"/>
<path d="M2378 1533 c-23 -6 -23 -16 2 -38 17 -15 24 -16 46 -6 26 11 26 12 9
31 -18 20 -25 22 -57 13z"/>
<path d="M2480 1535 c0 -3 9 -14 20 -25 22 -22 39 -8 20 15 -12 14 -40 21 -40
10z"/>
<path d="M2655 1500 c3 -5 8 -10 11 -10 2 0 4 5 4 10 0 6 -5 10 -11 10 -5 0
-7 -4 -4 -10z"/>
<path d="M2405 1320 c3 -5 13 -10 21 -10 8 0 14 5 14 10 0 6 -9 10 -21 10 -11
0 -17 -4 -14 -10z"/>
<path d="M150 992 c0 -22 13 -42 26 -42 20 0 17 14 -6 35 -11 10 -20 13 -20 7z"/>
<path d="M1911 764 c0 -11 3 -14 6 -6 3 7 2 16 -1 19 -3 4 -6 -2 -5 -13z"/>
<path d="M2630 635 c-14 -16 -10 -18 14 -9 9 3 16 10 16 15 0 14 -16 11 -30
-6z"/>
<path d="M1835 606 c-16 -12 -44 -73 -48 -106 -1 -8 8 -19 20 -25 12 -5 24
-16 27 -25 3 -12 4 -11 5 2 1 24 47 34 77 17 21 -11 29 -10 57 5 36 21 66 55
67 74 0 10 -5 10 -22 1 -13 -7 -26 -17 -30 -22 -4 -6 -18 3 -33 21 -15 18 -31
32 -37 32 -5 0 -22 9 -38 20 -23 16 -30 17 -45 6z"/>
<path d="M2649 557 c-31 -34 -62 -73 -69 -87 -12 -24 -11 -23 20 5 40 37 124
145 113 145 -4 0 -33 -28 -64 -63z"/>
<path d="M1175 290 c-3 -6 1 -7 9 -4 18 7 21 14 7 14 -6 0 -13 -4 -16 -10z"/>
<path d="M930 275 c-7 -9 -10 -18 -7 -21 9 -9 48 16 42 27 -9 13 -21 11 -35
-6z"/>
</g>
</svg>
